<mxfile host="app.diagrams.net" modified="2024-03-27T17:12:56.510Z" agent="Mozilla/5.0 (Macintosh; Intel Mac OS X 10_15_7) AppleWebKit/605.1.15 (KHTML, like Gecko) Version/17.3.1 Safari/605.1.15" etag="IxK1tVpWvZ7uJ0BS74YY" version="24.2.0" type="github">
  <diagram name="Page-1" id="3hzBIyxmlX53JxNRQg2O">
    <mxGraphModel dx="2261" dy="693" grid="1" gridSize="10" guides="1" tooltips="1" connect="1" arrows="1" fold="1" page="1" pageScale="1" pageWidth="827" pageHeight="1169" math="0" shadow="0">
      <root>
        <mxCell id="0" />
        <mxCell id="1" parent="0" />
        <mxCell id="ecGSglAtNl7Iom4S5FBd-57" value="" style="group" parent="1" vertex="1" connectable="0">
          <mxGeometry x="21" y="120" width="570" height="290" as="geometry" />
        </mxCell>
        <mxCell id="ecGSglAtNl7Iom4S5FBd-21" value="Decorator" style="edgeStyle=orthogonalEdgeStyle;rounded=0;orthogonalLoop=1;jettySize=auto;html=1;startArrow=classic;startFill=1;" parent="ecGSglAtNl7Iom4S5FBd-57" source="ecGSglAtNl7Iom4S5FBd-22" target="ecGSglAtNl7Iom4S5FBd-23" edge="1">
          <mxGeometry relative="1" as="geometry" />
        </mxCell>
        <mxCell id="ecGSglAtNl7Iom4S5FBd-22" value="&lt;div&gt;(Remote)&lt;/div&gt;Validade MFA" style="rounded=1;whiteSpace=wrap;html=1;" parent="ecGSglAtNl7Iom4S5FBd-57" vertex="1">
          <mxGeometry x="40" y="110" width="120" height="60" as="geometry" />
        </mxCell>
        <mxCell id="ecGSglAtNl7Iom4S5FBd-23" value="&lt;div&gt;(Local)&lt;/div&gt;Validade MFA" style="rounded=1;whiteSpace=wrap;html=1;" parent="ecGSglAtNl7Iom4S5FBd-57" vertex="1">
          <mxGeometry x="40" y="230" width="120" height="60" as="geometry" />
        </mxCell>
        <mxCell id="ecGSglAtNl7Iom4S5FBd-24" style="edgeStyle=orthogonalEdgeStyle;rounded=0;orthogonalLoop=1;jettySize=auto;html=1;entryX=0;entryY=0.5;entryDx=0;entryDy=0;" parent="ecGSglAtNl7Iom4S5FBd-57" source="ecGSglAtNl7Iom4S5FBd-25" target="ecGSglAtNl7Iom4S5FBd-23" edge="1">
          <mxGeometry relative="1" as="geometry">
            <Array as="points">
              <mxPoint y="30" />
              <mxPoint y="260" />
            </Array>
          </mxGeometry>
        </mxCell>
        <mxCell id="ecGSglAtNl7Iom4S5FBd-25" value="&lt;div&gt;(Inteface)&lt;/div&gt;Validade MFA" style="rounded=1;whiteSpace=wrap;html=1;dashed=1;" parent="ecGSglAtNl7Iom4S5FBd-57" vertex="1">
          <mxGeometry x="40" width="120" height="60" as="geometry" />
        </mxCell>
        <mxCell id="ecGSglAtNl7Iom4S5FBd-26" value="implements" style="edgeStyle=orthogonalEdgeStyle;rounded=0;orthogonalLoop=1;jettySize=auto;html=1;entryX=0;entryY=0.617;entryDx=0;entryDy=0;entryPerimeter=0;" parent="ecGSglAtNl7Iom4S5FBd-57" source="ecGSglAtNl7Iom4S5FBd-25" target="ecGSglAtNl7Iom4S5FBd-22" edge="1">
          <mxGeometry relative="1" as="geometry">
            <Array as="points">
              <mxPoint y="30" />
              <mxPoint y="147" />
            </Array>
          </mxGeometry>
        </mxCell>
        <mxCell id="ecGSglAtNl7Iom4S5FBd-27" style="edgeStyle=orthogonalEdgeStyle;rounded=0;orthogonalLoop=1;jettySize=auto;html=1;" parent="ecGSglAtNl7Iom4S5FBd-57" source="ecGSglAtNl7Iom4S5FBd-28" target="ecGSglAtNl7Iom4S5FBd-23" edge="1">
          <mxGeometry relative="1" as="geometry" />
        </mxCell>
        <mxCell id="ecGSglAtNl7Iom4S5FBd-28" value="(Repository)&lt;div&gt;Validate MFA&lt;/div&gt;" style="whiteSpace=wrap;html=1;rounded=1;" parent="ecGSglAtNl7Iom4S5FBd-57" vertex="1">
          <mxGeometry x="240" y="230" width="120" height="60" as="geometry" />
        </mxCell>
        <mxCell id="ecGSglAtNl7Iom4S5FBd-29" value="Implements" style="edgeStyle=orthogonalEdgeStyle;rounded=0;orthogonalLoop=1;jettySize=auto;html=1;entryX=0.5;entryY=0;entryDx=0;entryDy=0;" parent="ecGSglAtNl7Iom4S5FBd-57" source="ecGSglAtNl7Iom4S5FBd-30" target="ecGSglAtNl7Iom4S5FBd-28" edge="1">
          <mxGeometry relative="1" as="geometry" />
        </mxCell>
        <mxCell id="ecGSglAtNl7Iom4S5FBd-30" value="&lt;div&gt;(Inteface)&lt;/div&gt;Repository Validade MFA" style="rounded=1;whiteSpace=wrap;html=1;dashed=1;" parent="ecGSglAtNl7Iom4S5FBd-57" vertex="1">
          <mxGeometry x="240" width="120" height="60" as="geometry" />
        </mxCell>
        <mxCell id="ecGSglAtNl7Iom4S5FBd-32" style="edgeStyle=orthogonalEdgeStyle;rounded=0;orthogonalLoop=1;jettySize=auto;html=1;" parent="ecGSglAtNl7Iom4S5FBd-57" source="ecGSglAtNl7Iom4S5FBd-31" target="ecGSglAtNl7Iom4S5FBd-28" edge="1">
          <mxGeometry relative="1" as="geometry" />
        </mxCell>
        <mxCell id="ecGSglAtNl7Iom4S5FBd-31" value="(UseCase)&lt;div&gt;Validate MFA&lt;/div&gt;" style="whiteSpace=wrap;html=1;rounded=1;" parent="ecGSglAtNl7Iom4S5FBd-57" vertex="1">
          <mxGeometry x="450" y="230" width="120" height="60" as="geometry" />
        </mxCell>
        <mxCell id="ecGSglAtNl7Iom4S5FBd-58" value="" style="group" parent="1" vertex="1" connectable="0">
          <mxGeometry x="20" y="490" width="570" height="290" as="geometry" />
        </mxCell>
        <mxCell id="ecGSglAtNl7Iom4S5FBd-33" value="Decorator" style="edgeStyle=orthogonalEdgeStyle;rounded=0;orthogonalLoop=1;jettySize=auto;html=1;startArrow=classic;startFill=1;" parent="ecGSglAtNl7Iom4S5FBd-58" source="ecGSglAtNl7Iom4S5FBd-34" target="ecGSglAtNl7Iom4S5FBd-35" edge="1">
          <mxGeometry relative="1" as="geometry" />
        </mxCell>
        <mxCell id="ecGSglAtNl7Iom4S5FBd-34" value="&lt;div&gt;(Remote)&lt;/div&gt;Montion" style="rounded=1;whiteSpace=wrap;html=1;" parent="ecGSglAtNl7Iom4S5FBd-58" vertex="1">
          <mxGeometry x="40" y="110" width="120" height="60" as="geometry" />
        </mxCell>
        <mxCell id="ecGSglAtNl7Iom4S5FBd-35" value="&lt;div&gt;(Local)&lt;/div&gt;Montion" style="rounded=1;whiteSpace=wrap;html=1;" parent="ecGSglAtNl7Iom4S5FBd-58" vertex="1">
          <mxGeometry x="40" y="230" width="120" height="60" as="geometry" />
        </mxCell>
        <mxCell id="ecGSglAtNl7Iom4S5FBd-36" style="edgeStyle=orthogonalEdgeStyle;rounded=0;orthogonalLoop=1;jettySize=auto;html=1;entryX=0;entryY=0.5;entryDx=0;entryDy=0;" parent="ecGSglAtNl7Iom4S5FBd-58" source="ecGSglAtNl7Iom4S5FBd-37" target="ecGSglAtNl7Iom4S5FBd-35" edge="1">
          <mxGeometry relative="1" as="geometry">
            <Array as="points">
              <mxPoint y="30" />
              <mxPoint y="260" />
            </Array>
          </mxGeometry>
        </mxCell>
        <mxCell id="ecGSglAtNl7Iom4S5FBd-37" value="&lt;div&gt;(Inteface)&lt;/div&gt;Montion" style="rounded=1;whiteSpace=wrap;html=1;dashed=1;" parent="ecGSglAtNl7Iom4S5FBd-58" vertex="1">
          <mxGeometry x="40" width="120" height="60" as="geometry" />
        </mxCell>
        <mxCell id="ecGSglAtNl7Iom4S5FBd-38" value="implements" style="edgeStyle=orthogonalEdgeStyle;rounded=0;orthogonalLoop=1;jettySize=auto;html=1;entryX=0;entryY=0.617;entryDx=0;entryDy=0;entryPerimeter=0;" parent="ecGSglAtNl7Iom4S5FBd-58" source="ecGSglAtNl7Iom4S5FBd-37" target="ecGSglAtNl7Iom4S5FBd-34" edge="1">
          <mxGeometry relative="1" as="geometry">
            <Array as="points">
              <mxPoint y="30" />
              <mxPoint y="147" />
            </Array>
          </mxGeometry>
        </mxCell>
        <mxCell id="ecGSglAtNl7Iom4S5FBd-39" style="edgeStyle=orthogonalEdgeStyle;rounded=0;orthogonalLoop=1;jettySize=auto;html=1;" parent="ecGSglAtNl7Iom4S5FBd-58" source="ecGSglAtNl7Iom4S5FBd-40" target="ecGSglAtNl7Iom4S5FBd-35" edge="1">
          <mxGeometry relative="1" as="geometry" />
        </mxCell>
        <mxCell id="ecGSglAtNl7Iom4S5FBd-40" value="(Repository)&lt;br&gt;&lt;div&gt;Motion&lt;/div&gt;" style="whiteSpace=wrap;html=1;rounded=1;" parent="ecGSglAtNl7Iom4S5FBd-58" vertex="1">
          <mxGeometry x="240" y="230" width="120" height="60" as="geometry" />
        </mxCell>
        <mxCell id="ecGSglAtNl7Iom4S5FBd-41" value="Implements" style="edgeStyle=orthogonalEdgeStyle;rounded=0;orthogonalLoop=1;jettySize=auto;html=1;entryX=0.5;entryY=0;entryDx=0;entryDy=0;" parent="ecGSglAtNl7Iom4S5FBd-58" source="ecGSglAtNl7Iom4S5FBd-42" target="ecGSglAtNl7Iom4S5FBd-40" edge="1">
          <mxGeometry relative="1" as="geometry" />
        </mxCell>
        <mxCell id="ecGSglAtNl7Iom4S5FBd-42" value="&lt;div&gt;(Inteface)&lt;/div&gt;Repository Motion" style="rounded=1;whiteSpace=wrap;html=1;dashed=1;" parent="ecGSglAtNl7Iom4S5FBd-58" vertex="1">
          <mxGeometry x="240" width="120" height="60" as="geometry" />
        </mxCell>
        <mxCell id="ecGSglAtNl7Iom4S5FBd-43" style="edgeStyle=orthogonalEdgeStyle;rounded=0;orthogonalLoop=1;jettySize=auto;html=1;" parent="ecGSglAtNl7Iom4S5FBd-58" source="ecGSglAtNl7Iom4S5FBd-44" target="ecGSglAtNl7Iom4S5FBd-40" edge="1">
          <mxGeometry relative="1" as="geometry" />
        </mxCell>
        <mxCell id="ecGSglAtNl7Iom4S5FBd-44" value="(UseCase)&lt;br&gt;&lt;div&gt;Motion&lt;/div&gt;" style="whiteSpace=wrap;html=1;rounded=1;" parent="ecGSglAtNl7Iom4S5FBd-58" vertex="1">
          <mxGeometry x="450" y="230" width="120" height="60" as="geometry" />
        </mxCell>
        <mxCell id="ecGSglAtNl7Iom4S5FBd-59" value="" style="group" parent="1" vertex="1" connectable="0">
          <mxGeometry x="21" y="850" width="570" height="290" as="geometry" />
        </mxCell>
        <mxCell id="ecGSglAtNl7Iom4S5FBd-45" value="Decorator" style="edgeStyle=orthogonalEdgeStyle;rounded=0;orthogonalLoop=1;jettySize=auto;html=1;startArrow=classic;startFill=1;" parent="ecGSglAtNl7Iom4S5FBd-59" source="ecGSglAtNl7Iom4S5FBd-46" target="ecGSglAtNl7Iom4S5FBd-47" edge="1">
          <mxGeometry relative="1" as="geometry" />
        </mxCell>
        <mxCell id="ecGSglAtNl7Iom4S5FBd-46" value="&lt;div&gt;(Remote)&lt;/div&gt;Montion Interaction" style="rounded=1;whiteSpace=wrap;html=1;" parent="ecGSglAtNl7Iom4S5FBd-59" vertex="1">
          <mxGeometry x="40" y="110" width="120" height="60" as="geometry" />
        </mxCell>
        <mxCell id="ecGSglAtNl7Iom4S5FBd-47" value="&lt;div&gt;(Local)&lt;/div&gt;Montion Interaction" style="rounded=1;whiteSpace=wrap;html=1;" parent="ecGSglAtNl7Iom4S5FBd-59" vertex="1">
          <mxGeometry x="40" y="230" width="120" height="60" as="geometry" />
        </mxCell>
        <mxCell id="ecGSglAtNl7Iom4S5FBd-48" style="edgeStyle=orthogonalEdgeStyle;rounded=0;orthogonalLoop=1;jettySize=auto;html=1;entryX=0;entryY=0.5;entryDx=0;entryDy=0;" parent="ecGSglAtNl7Iom4S5FBd-59" source="ecGSglAtNl7Iom4S5FBd-49" target="ecGSglAtNl7Iom4S5FBd-47" edge="1">
          <mxGeometry relative="1" as="geometry">
            <Array as="points">
              <mxPoint y="30" />
              <mxPoint y="260" />
            </Array>
          </mxGeometry>
        </mxCell>
        <mxCell id="ecGSglAtNl7Iom4S5FBd-49" value="&lt;div&gt;(Inteface)&lt;/div&gt;Montion Interaction" style="rounded=1;whiteSpace=wrap;html=1;dashed=1;" parent="ecGSglAtNl7Iom4S5FBd-59" vertex="1">
          <mxGeometry x="40" width="120" height="60" as="geometry" />
        </mxCell>
        <mxCell id="ecGSglAtNl7Iom4S5FBd-50" value="implements" style="edgeStyle=orthogonalEdgeStyle;rounded=0;orthogonalLoop=1;jettySize=auto;html=1;entryX=0;entryY=0.617;entryDx=0;entryDy=0;entryPerimeter=0;" parent="ecGSglAtNl7Iom4S5FBd-59" source="ecGSglAtNl7Iom4S5FBd-49" target="ecGSglAtNl7Iom4S5FBd-46" edge="1">
          <mxGeometry relative="1" as="geometry">
            <Array as="points">
              <mxPoint y="30" />
              <mxPoint y="147" />
            </Array>
          </mxGeometry>
        </mxCell>
        <mxCell id="ecGSglAtNl7Iom4S5FBd-51" style="edgeStyle=orthogonalEdgeStyle;rounded=0;orthogonalLoop=1;jettySize=auto;html=1;" parent="ecGSglAtNl7Iom4S5FBd-59" source="ecGSglAtNl7Iom4S5FBd-52" target="ecGSglAtNl7Iom4S5FBd-47" edge="1">
          <mxGeometry relative="1" as="geometry" />
        </mxCell>
        <mxCell id="ecGSglAtNl7Iom4S5FBd-52" value="(Repository)&lt;br&gt;&lt;div&gt;Montion Interaction&lt;br&gt;&lt;/div&gt;" style="whiteSpace=wrap;html=1;rounded=1;" parent="ecGSglAtNl7Iom4S5FBd-59" vertex="1">
          <mxGeometry x="240" y="230" width="120" height="60" as="geometry" />
        </mxCell>
        <mxCell id="ecGSglAtNl7Iom4S5FBd-53" value="Implements" style="edgeStyle=orthogonalEdgeStyle;rounded=0;orthogonalLoop=1;jettySize=auto;html=1;entryX=0.5;entryY=0;entryDx=0;entryDy=0;" parent="ecGSglAtNl7Iom4S5FBd-59" source="ecGSglAtNl7Iom4S5FBd-54" target="ecGSglAtNl7Iom4S5FBd-52" edge="1">
          <mxGeometry relative="1" as="geometry" />
        </mxCell>
        <mxCell id="ecGSglAtNl7Iom4S5FBd-54" value="&lt;div&gt;(Inteface)&lt;/div&gt;Repository Montion Interaction" style="rounded=1;whiteSpace=wrap;html=1;dashed=1;" parent="ecGSglAtNl7Iom4S5FBd-59" vertex="1">
          <mxGeometry x="240" width="120" height="60" as="geometry" />
        </mxCell>
        <mxCell id="ecGSglAtNl7Iom4S5FBd-55" style="edgeStyle=orthogonalEdgeStyle;rounded=0;orthogonalLoop=1;jettySize=auto;html=1;" parent="ecGSglAtNl7Iom4S5FBd-59" source="ecGSglAtNl7Iom4S5FBd-56" target="ecGSglAtNl7Iom4S5FBd-52" edge="1">
          <mxGeometry relative="1" as="geometry" />
        </mxCell>
        <mxCell id="ecGSglAtNl7Iom4S5FBd-56" value="(UseCase)&lt;br&gt;&lt;div&gt;Montion Interaction&lt;br&gt;&lt;/div&gt;" style="whiteSpace=wrap;html=1;rounded=1;" parent="ecGSglAtNl7Iom4S5FBd-59" vertex="1">
          <mxGeometry x="450" y="230" width="120" height="60" as="geometry" />
        </mxCell>
        <mxCell id="ecGSglAtNl7Iom4S5FBd-61" style="edgeStyle=orthogonalEdgeStyle;rounded=0;orthogonalLoop=1;jettySize=auto;html=1;entryX=1;entryY=0.5;entryDx=0;entryDy=0;" parent="1" source="ecGSglAtNl7Iom4S5FBd-60" target="ecGSglAtNl7Iom4S5FBd-31" edge="1">
          <mxGeometry relative="1" as="geometry" />
        </mxCell>
        <mxCell id="ecGSglAtNl7Iom4S5FBd-62" style="edgeStyle=orthogonalEdgeStyle;rounded=0;orthogonalLoop=1;jettySize=auto;html=1;" parent="1" source="ecGSglAtNl7Iom4S5FBd-60" target="ecGSglAtNl7Iom4S5FBd-44" edge="1">
          <mxGeometry relative="1" as="geometry" />
        </mxCell>
        <mxCell id="ecGSglAtNl7Iom4S5FBd-63" style="edgeStyle=orthogonalEdgeStyle;rounded=0;orthogonalLoop=1;jettySize=auto;html=1;entryX=1;entryY=0.5;entryDx=0;entryDy=0;" parent="1" source="ecGSglAtNl7Iom4S5FBd-60" target="ecGSglAtNl7Iom4S5FBd-56" edge="1">
          <mxGeometry relative="1" as="geometry" />
        </mxCell>
        <mxCell id="ecGSglAtNl7Iom4S5FBd-60" value="(Cubit)&lt;div&gt;Setup Campaing Phone&lt;/div&gt;" style="rounded=1;whiteSpace=wrap;html=1;" parent="1" vertex="1">
          <mxGeometry x="731" y="720" width="120" height="60" as="geometry" />
        </mxCell>
        <mxCell id="ecGSglAtNl7Iom4S5FBd-64" value="Micro Dashboard" style="swimlane;whiteSpace=wrap;html=1;" parent="1" vertex="1">
          <mxGeometry x="-100" y="60" width="1020" height="1230" as="geometry" />
        </mxCell>
      </root>
    </mxGraphModel>
  </diagram>
</mxfile>
